# xmcd
# 
# Track frame offsets:
#     150
#     17732
#     33093
#     50254
#     66134
# 
# Disc length: 1182
# 
# Revision: 0
# Processed by: cddbd v1.5.2PL0 Copyright (c) Steve Scherf et al.
# Submitted via: fre:ac v1.0.17
# 
DISCID=34049c05
DTITLE=Twelve Foot Ninja - Smoke Bomb!
DYEAR=2010
DGENRE=Progressive Rock
TTITLE0=Clarion
TTITLE1=War
TTITLE2=Apocolypstik
TTITLE3=Child With No Enemy
TTITLE4=Manufacture of Consent
EXTD=
EXTT0=
EXTT1=
EXTT2=
EXTT3=
EXTT4=
PLAYORDER=
